<svg fill="none" height="100%" width="100%" viewBox="0 0 1080 1080" xmlns:xlink="http://www.w3.org/1999/xlink" xmlns="http://www.w3.org/2000/svg"><defs><clipPath id="i0"><rect height="1080" width="1080" y="0" x="0" /></clipPath><filter id="i1"><feColorMatrix values="0 0 0 0 1 0 0 0 0 1 0 0 0 0 1 0 0 0 1 0" type="matrix" /></filter><mask height="20000" width="20000" y="-10000" x="-10000" maskContentUnits="userSpaceOnUse" maskUnits="userSpaceOnUse" style="mask-type: alpha" mask-type="alpha" id="i2"><g filter="url(#i1)" transform="matrix(1,0,0,1,540,540)"><g id="i3"><path fill="#767676" d="M69.686,-49.975C69.686,-32.455,55.484,-18.253,37.964,-18.253C20.444,-18.253,6.241,-32.455,6.241,-49.975C6.241,-67.495,20.444,-81.697,37.964,-81.697C55.484,-81.697,69.686,-67.495,69.686,-49.975Z" /></g></g></mask><filter id="i4"><feColorMatrix values="0 0 0 0 1 0 0 0 0 1 0 0 0 0 1 0 0 0 1 0" type="matrix" /></filter><mask height="20000" width="20000" y="-10000" x="-10000" maskContentUnits="userSpaceOnUse" maskUnits="userSpaceOnUse" style="mask-type: alpha" mask-type="alpha" id="i5"><g filter="url(#i4)" transform="matrix(1,0,0,1,540,540)"><g id="i3"><path fill="#767676" d="M69.686,-49.975C69.686,-32.455,55.484,-18.253,37.964,-18.253C20.444,-18.253,6.241,-32.455,6.241,-49.975C6.241,-67.495,20.444,-81.697,37.964,-81.697C55.484,-81.697,69.686,-67.495,69.686,-49.975Z" /></g></g></mask><g id="i6"><g transform="matrix(1,0,0,1,540,540)" id="i7"><g id="i3"><path fill="#767676" d="M69.686,-49.975C69.686,-32.455,55.484,-18.253,37.964,-18.253C20.444,-18.253,6.241,-32.455,6.241,-49.975C6.241,-67.495,20.444,-81.697,37.964,-81.697C55.484,-81.697,69.686,-67.495,69.686,-49.975Z" /></g></g><g transform="matrix(1,0,0,1,540,540)" id="i8"><g id="i3"><path fill="#ffffff" d="M60.395,-49.975C60.395,-37.587,50.352,-27.544,37.964,-27.544C25.576,-27.544,15.532,-37.587,15.532,-49.975C15.532,-62.363,25.576,-72.406,37.964,-72.406C50.352,-72.406,60.395,-62.363,60.395,-49.975Z" /></g></g><g id="i9"><g transform="translate(577.964,490.025)"><animateTransform repeatCount="indefinite" type="translate" attributeName="transform" dur="8s" begin="0s" calcMode="spline" values="577.964 490.025; 587.964 490.025; 587.964 490.025; 577.964 490.025; 577.964 490.025" keyTimes="0; 0.041667; 0.25; 0.291667; 1" keySplines="0.9 0 0.67 1; 0 0 1 1; 0.9 0 0.67 1; 0 0 1 1" fill="freeze" /><g transform="scale(1,1) translate(-37.964,49.975)"><g id="i3"><path fill="#4a4b4a" d="M43.51,-49.975C43.51,-46.912,41.027,-44.429,37.964,-44.429C34.901,-44.429,32.417,-46.912,32.417,-49.975C32.417,-53.038,34.901,-55.521,37.964,-55.521C41.027,-55.521,43.51,-53.038,43.51,-49.975Z" /></g></g></g></g><g mask="url(#i2)" id="i10"><g transform="translate(577.964,527.302)"><animateTransform repeatCount="indefinite" type="translate" attributeName="transform" dur="8s" begin="0s" calcMode="spline" values="577.964 527.302; 577.964 527.302; 577.964 513.802; 577.964 513.802; 577.964 513.802; 577.964 527.302; 577.964 527.302" keyTimes="0; 0.291667; 0.4375; 0.625; 0.6875; 0.708333; 1" keySplines="0 0 1 1; 0.2 0 0.8 1; 0 0 1 1; 0 0 1 1; 0.167 0 0.833 1; 0 0 1 1" fill="freeze" /><g transform="scale(1,-1) translate(-37.964,67.198)"><g id="i3"><path fill="#767676" d="M69.562,-52.698C68.18,-68.942,54.566,-81.697,37.964,-81.697C21.362,-81.697,7.747,-68.942,6.365,-52.698C6.365,-52.698,69.562,-52.698,69.562,-52.698Z" /></g></g></g></g><g display="none" transform="matrix(1,0,0,1,540,540)" id="i11"><g id="i3"><path fill="#767676" d="M69.686,-49.975C69.686,-32.455,55.484,-18.253,37.964,-18.253C20.444,-18.253,6.241,-32.455,6.241,-49.975C6.241,-67.495,20.444,-81.697,37.964,-81.697C55.484,-81.697,69.686,-67.495,69.686,-49.975Z" /></g></g><g mask="url(#i5)" id="i12"><g transform="translate(577.964,472.802)"><animateTransform repeatCount="indefinite" type="translate" attributeName="transform" dur="8s" begin="0s" calcMode="spline" values="577.964 472.802; 577.964 472.802; 577.964 472.802; 577.964 448.802; 577.964 448.802; 577.964 472.802; 577.964 472.802" keyTimes="0; 0.625; 0.6875; 0.708333; 0.875; 0.9375; 1" keySplines="0 0 1 1; 0 0 1 1; 0.9 0 0.67 1; 0 0 1 1; 0.9 0 0.67 1; 0 0 1 1" fill="freeze" /><g transform="scale(1,1) translate(-37.964,67.198)"><g id="i3"><path fill="#767676" d="M69.562,-52.698C68.18,-68.942,54.566,-81.697,37.964,-81.697C21.362,-81.697,7.747,-68.942,6.365,-52.698C6.365,-52.698,69.562,-52.698,69.562,-52.698Z" /></g></g></g></g><g display="none" transform="matrix(1,0,0,1,540,540)" id="i13"><g id="i3"><path fill="#767676" d="M69.686,-49.975C69.686,-32.455,55.484,-18.253,37.964,-18.253C20.444,-18.253,6.241,-32.455,6.241,-49.975C6.241,-67.495,20.444,-81.697,37.964,-81.697C55.484,-81.697,69.686,-67.495,69.686,-49.975Z" /></g></g></g></defs><g opacity="0.2" id="i14"><g transform="translate(540,744.318)"><g transform="scale(1,1)"><animateTransform repeatCount="indefinite" type="scale" attributeName="transform" dur="8s" begin="0s" calcMode="spline" values="1 1; 1 1; 1.173 1; 1.173 1; 0.887 1; 0.887 1; 1 1; 1 1" keyTimes="0; 0.320833; 0.5; 0.6875; 0.7125; 0.875; 0.9375; 1" keySplines="0 0 1 1; 0 0 1 1; 0 0 1 1; 0 0 1 1; 0 0 1 1; 0 0 1 1; 0 0 1 1" fill="freeze" /><g transform="translate(0,-204.318)"><g id="i3"><path fill="#767676" d="M115.374,204.318C115.374,204.318,115.374,204.318,115.374,204.318C115.374,211.347,109.676,217.045,102.647,217.045C102.647,217.045,-102.647,217.045,-102.647,217.045C-109.676,217.045,-115.374,211.347,-115.374,204.318C-115.374,204.318,-115.374,204.318,-115.374,204.318C-115.374,197.289,-109.676,191.591,-102.647,191.591C-102.647,191.591,102.647,191.591,102.647,191.591C109.676,191.591,115.374,197.289,115.374,204.318Z" /></g></g></g></g></g><g visibility="hidden" id="i15"><animate repeatCount="indefinite" begin="0s" calcMode="discrete" dur="8s" values="hidden; visible; visible" keyTimes="0; 0.688; 1" attributeName="visibility" /><g transform="translate(540,540)"><animateTransform repeatCount="indefinite" type="translate" attributeName="transform" dur="8s" begin="0s" calcMode="spline" values="540 540; 540 540; 540 726.5; 528 709.5; 528 727.25; 522.75 725.25; 517.75 727.25; 507.5 727.25; 507.5 727.25" keyTimes="0; 0.6875; 0.7125; 0.729167; 0.741667; 0.754167; 0.766666; 0.783333; 1" keySplines="0 0 1 1; 0.9 0 0.67 1; 0.9 0 0.67 1; 0.9 0 0.67 1; 0.9 0 0.67 1; 0.9 0 0.67 1; 0.9 0 0.67 1; 0 0 1 1" fill="freeze" /><g transform="scale(0.408,0.408) translate(-164.671,-148.671)"><g id="i16" transform="matrix(1,0,0,1,164.671,148.671)"><ellipse ry="12.671" rx="12.671" cy="0" cx="0" fill="#101010" /></g></g></g></g><g transform="matrix(1,0,0,1,540,540)" id="i17"><g id="i3"><path fill="#767676" d="M-38.096,208.546C-38.096,208.546,-38.096,208.546,-38.096,208.546C-45.125,208.546,-50.823,202.847,-50.823,195.818C-50.823,195.818,-50.823,104.802,-50.823,104.802C-50.823,97.773,-45.125,92.075,-38.096,92.075C-38.096,92.075,-38.096,92.075,-38.096,92.075C-31.067,92.075,-25.369,97.773,-25.369,104.802C-25.369,104.802,-25.369,195.818,-25.369,195.818C-25.369,202.847,-31.067,208.546,-38.096,208.546Z" /></g></g><g transform="matrix(1,0,0,1,540,540)" id="i18"><g id="i3"><path fill="#767676" d="M37.964,208.546C37.964,208.546,37.964,208.546,37.964,208.546C30.935,208.546,25.237,202.847,25.237,195.818C25.237,195.818,25.237,104.802,25.237,104.802C25.237,97.773,30.935,92.075,37.964,92.075C37.964,92.075,37.964,92.075,37.964,92.075C44.993,92.075,50.691,97.773,50.691,104.802C50.691,104.802,50.691,195.818,50.691,195.818C50.691,202.847,44.993,208.546,37.964,208.546Z" /></g></g><g id="i19"><g transform="translate(540,540)"><animateTransform repeatCount="indefinite" type="translate" attributeName="transform" dur="8s" begin="0s" calcMode="spline" values="540 540; 540 540; 540 550; 540 550; 540 534; 540 534; 540 540; 540 540" keyTimes="0; 0.320833; 0.5; 0.6875; 0.7125; 0.875; 0.9375; 1" keySplines="0 0 1 1; 0.5 0 0.5 1; 0 0 1 1; 0.33 0 0.1 1; 0 0 1 1; 0.33 0 0.5 1; 0 0 1 1" fill="freeze" /><g transform="scale(1,1) translate(0,0)"><g id="i3"><path fill="#ecf6e7" d="M0,-131.763C0,-131.763,0,-131.764,0,-131.764C23.923,-166.683,78.62,-148.911,77.449,-106.599C77.449,-106.599,77.449,-106.599,77.449,-106.599C77.449,-106.599,77.449,-106.599,77.449,-106.599C117.328,-120.788,151.132,-74.26,125.314,-40.717C125.314,-40.717,125.314,-40.717,125.314,-40.717C125.314,-40.717,125.315,-40.717,125.315,-40.717C165.918,-28.756,165.918,28.756,125.315,40.717C125.315,40.717,125.314,40.717,125.314,40.717C125.314,40.717,125.314,40.717,125.314,40.717C151.132,74.26,117.328,120.788,77.449,106.599C77.449,106.599,77.449,106.599,77.449,106.599C77.449,106.599,77.449,106.599,77.449,106.599C78.62,148.911,23.923,166.683,0,131.764C0,131.764,0,131.763,0,131.763C0,131.763,0,131.764,0,131.764C-23.923,166.683,-78.62,148.911,-77.449,106.599C-77.449,106.599,-77.449,106.599,-77.449,106.599C-77.449,106.599,-77.449,106.599,-77.449,106.599C-117.328,120.788,-151.132,74.26,-125.315,40.717C-125.315,40.717,-125.314,40.717,-125.314,40.717C-125.314,40.717,-125.315,40.717,-125.315,40.717C-165.918,28.756,-165.918,-28.756,-125.315,-40.717C-125.315,-40.717,-125.314,-40.717,-125.314,-40.717C-125.314,-40.717,-125.315,-40.717,-125.315,-40.717C-151.132,-74.26,-117.328,-120.788,-77.449,-106.599C-77.449,-106.599,-77.449,-106.599,-77.449,-106.599C-77.449,-106.599,-77.449,-106.599,-77.449,-106.599C-78.62,-148.911,-23.923,-166.683,0,-131.764C0,-131.764,0,-131.763,0,-131.763Z" /></g></g></g></g><g id="i20"><g transform="translate(540,572)"><animateTransform repeatCount="indefinite" type="translate" attributeName="transform" dur="8s" begin="0s" calcMode="spline" values="540 572; 540 572; 540 562; 540 562; 540 582; 540 582; 540 572; 540 572" keyTimes="0; 0.320833; 0.5; 0.6875; 0.7125; 0.875; 0.9375; 1" keySplines="0 0 1 1; 0.5 0 0.5 1; 0 0 1 1; 0.33 0 0.1 1; 0 0 1 1; 0.33 0 0.5 1; 0 0 1 1" fill="freeze" /><g transform="scale(1,1) translate(0,0)"><g id="i3"><path fill="#767676" d="M0,66.706C0,66.706,0,66.706,0,66.706C-28.069,66.706,-50.823,43.951,-50.823,15.882C-50.823,15.882,-50.823,-15.882,-50.823,-15.882C-50.823,-43.951,-28.069,-66.706,0,-66.706C0,-66.706,0,-66.706,0,-66.706C28.069,-66.706,50.823,-43.951,50.823,-15.882C50.823,-15.882,50.823,15.882,50.823,15.882C50.823,43.951,28.069,66.706,0,66.706Z" /></g></g></g></g><g id="i20"><g transform="translate(540,572)"><animateTransform repeatCount="indefinite" type="translate" attributeName="transform" dur="8s" begin="0s" calcMode="spline" values="540 572; 540 572; 540 562; 540 562; 540 582; 540 582; 540 572; 540 572" keyTimes="0; 0.320833; 0.5; 0.6875; 0.7125; 0.875; 0.9375; 1" keySplines="0 0 1 1; 0.5 0 0.5 1; 0 0 1 1; 0.33 0 0.1 1; 0 0 1 1; 0.33 0 0.5 1; 0 0 1 1" fill="freeze" /><g transform="scale(1,1) translate(0,0)"><g id="i21"><g transform="translate(-37.417,-51.517)"><g transform="rotate(0)"><animateTransform repeatCount="indefinite" type="rotate" attributeName="transform" dur="8s" begin="0s" calcMode="spline" values="0; 0; 15; 15; -15; -15; 0; 0" keyTimes="0; 0.320833; 0.4375; 0.6875; 0.7125; 0.908334; 0.9375; 1" keySplines="0 0 1 1; 0 0 1 1; 0 0 1 1; 0 0 1 1; 0 0 1 1; 0 0 1 1; 0 0 1 1" fill="freeze" /><g transform="scale(1,1) translate(37.417,51.517)"><g id="i3"><path fill="#767676" d="M-101.817,-9.596C-101.817,-9.596,-101.817,-9.596,-101.817,-9.596C-101.817,-9.596,-101.817,-9.596,-101.817,-9.596C-95.238,-38.584,-66.405,-56.749,-37.417,-50.17C-37.417,-50.17,-37.417,-50.17,-37.417,-50.17C-37.417,-50.17,-37.417,-50.17,-37.417,-50.17C-43.996,-21.182,-72.829,-3.017,-101.817,-9.596Z" /></g></g></g></g></g></g></g></g><g id="i20"><g transform="translate(540,572)"><animateTransform repeatCount="indefinite" type="translate" attributeName="transform" dur="8s" begin="0s" calcMode="spline" values="540 572; 540 572; 540 562; 540 562; 540 582; 540 582; 540 572; 540 572" keyTimes="0; 0.320833; 0.5; 0.6875; 0.7125; 0.875; 0.9375; 1" keySplines="0 0 1 1; 0.5 0 0.5 1; 0 0 1 1; 0.33 0 0.1 1; 0 0 1 1; 0.33 0 0.5 1; 0 0 1 1" fill="freeze" /><g transform="scale(1,1) translate(0,0)"><g id="i22"><g transform="translate(37.417,-51.517)"><g transform="rotate(0)"><animateTransform repeatCount="indefinite" type="rotate" attributeName="transform" dur="8s" begin="0s" calcMode="spline" values="0; 0; -15; -15; 15; 15; 0; 0" keyTimes="0; 0.320833; 0.4375; 0.6875; 0.7125; 0.908334; 0.9375; 1" keySplines="0 0 1 1; 0 0 1 1; 0 0 1 1; 0 0 1 1; 0 0 1 1; 0 0 1 1; 0 0 1 1" fill="freeze" /><g transform="scale(1,1) translate(-37.417,51.517)"><g id="i3"><path fill="#767676" d="M101.817,-9.596C101.817,-9.596,101.817,-9.596,101.817,-9.596C101.817,-9.596,101.817,-9.596,101.817,-9.596C95.238,-38.584,66.405,-56.749,37.417,-50.17C37.417,-50.17,37.417,-50.17,37.417,-50.17C37.417,-50.17,37.417,-50.17,37.417,-50.17C43.996,-21.182,72.829,-3.017,101.817,-9.596Z" /></g></g></g></g></g></g></g></g><g id="i20"><g transform="translate(540,572)"><animateTransform repeatCount="indefinite" type="translate" attributeName="transform" dur="8s" begin="0s" calcMode="spline" values="540 572; 540 572; 540 562; 540 562; 540 582; 540 582; 540 572; 540 572" keyTimes="0; 0.320833; 0.5; 0.6875; 0.7125; 0.875; 0.9375; 1" keySplines="0 0 1 1; 0.5 0 0.5 1; 0 0 1 1; 0.33 0 0.1 1; 0 0 1 1; 0.33 0 0.5 1; 0 0 1 1" fill="freeze" /><g transform="scale(1,1) translate(0,0)"><g transform="matrix(1,0,0,1,-540,-540)" id="i23"><g clip-path="url(#i0)"><g transform="matrix(1,0,0,1,540,540)"><g><path fill="#767676" d="M69.686,-49.975C69.686,-32.455,55.484,-18.253,37.964,-18.253C20.444,-18.253,6.241,-32.455,6.241,-49.975C6.241,-67.495,20.444,-81.697,37.964,-81.697C55.484,-81.697,69.686,-67.495,69.686,-49.975Z" /></g></g><g transform="matrix(1,0,0,1,540,540)"><g><path fill="#ffffff" d="M60.395,-49.975C60.395,-37.587,50.352,-27.544,37.964,-27.544C25.576,-27.544,15.532,-37.587,15.532,-49.975C15.532,-62.363,25.576,-72.406,37.964,-72.406C50.352,-72.406,60.395,-62.363,60.395,-49.975Z" /></g></g><g><g transform="translate(577.964,490.025)"><animateTransform repeatCount="indefinite" type="translate" attributeName="transform" dur="8s" begin="0s" calcMode="spline" values="577.964 490.025; 587.964 490.025; 587.964 490.025; 577.964 490.025; 577.964 490.025" keyTimes="0; 0.041667; 0.25; 0.291667; 1" keySplines="0.9 0 0.67 1; 0 0 1 1; 0.9 0 0.67 1; 0 0 1 1" fill="freeze" /><g transform="scale(1,1) translate(-37.964,49.975)"><g><path fill="#4a4b4a" d="M43.51,-49.975C43.51,-46.912,41.027,-44.429,37.964,-44.429C34.901,-44.429,32.417,-46.912,32.417,-49.975C32.417,-53.038,34.901,-55.521,37.964,-55.521C41.027,-55.521,43.51,-53.038,43.51,-49.975Z" /></g></g></g></g><g mask="url(#i2)"><g transform="translate(577.964,527.302)"><animateTransform repeatCount="indefinite" type="translate" attributeName="transform" dur="8s" begin="0s" calcMode="spline" values="577.964 527.302; 577.964 527.302; 577.964 513.802; 577.964 513.802; 577.964 513.802; 577.964 527.302; 577.964 527.302" keyTimes="0; 0.291667; 0.4375; 0.625; 0.6875; 0.708333; 1" keySplines="0 0 1 1; 0.2 0 0.8 1; 0 0 1 1; 0 0 1 1; 0.167 0 0.833 1; 0 0 1 1" fill="freeze" /><g transform="scale(1,-1) translate(-37.964,67.198)"><g><path fill="#767676" d="M69.562,-52.698C68.18,-68.942,54.566,-81.697,37.964,-81.697C21.362,-81.697,7.747,-68.942,6.365,-52.698C6.365,-52.698,69.562,-52.698,69.562,-52.698Z" /></g></g></g></g><g display="none" transform="matrix(1,0,0,1,540,540)"><g><path fill="#767676" d="M69.686,-49.975C69.686,-32.455,55.484,-18.253,37.964,-18.253C20.444,-18.253,6.241,-32.455,6.241,-49.975C6.241,-67.495,20.444,-81.697,37.964,-81.697C55.484,-81.697,69.686,-67.495,69.686,-49.975Z" /></g></g><g mask="url(#i5)"><g transform="translate(577.964,472.802)"><animateTransform repeatCount="indefinite" type="translate" attributeName="transform" dur="8s" begin="0s" calcMode="spline" values="577.964 472.802; 577.964 472.802; 577.964 472.802; 577.964 448.802; 577.964 448.802; 577.964 472.802; 577.964 472.802" keyTimes="0; 0.625; 0.6875; 0.708333; 0.875; 0.9375; 1" keySplines="0 0 1 1; 0 0 1 1; 0.9 0 0.67 1; 0 0 1 1; 0.9 0 0.67 1; 0 0 1 1" fill="freeze" /><g transform="scale(1,1) translate(-37.964,67.198)"><g><path fill="#767676" d="M69.562,-52.698C68.18,-68.942,54.566,-81.697,37.964,-81.697C21.362,-81.697,7.747,-68.942,6.365,-52.698C6.365,-52.698,69.562,-52.698,69.562,-52.698Z" /></g></g></g></g><g display="none" transform="matrix(1,0,0,1,540,540)"><g><path fill="#767676" d="M69.686,-49.975C69.686,-32.455,55.484,-18.253,37.964,-18.253C20.444,-18.253,6.241,-32.455,6.241,-49.975C6.241,-67.495,20.444,-81.697,37.964,-81.697C55.484,-81.697,69.686,-67.495,69.686,-49.975Z" /></g></g></g></g></g></g></g><g id="i20"><g transform="translate(540,572)"><animateTransform repeatCount="indefinite" type="translate" attributeName="transform" dur="8s" begin="0s" calcMode="spline" values="540 572; 540 572; 540 562; 540 562; 540 582; 540 582; 540 572; 540 572" keyTimes="0; 0.320833; 0.5; 0.6875; 0.7125; 0.875; 0.9375; 1" keySplines="0 0 1 1; 0.5 0 0.5 1; 0 0 1 1; 0.33 0 0.1 1; 0 0 1 1; 0.33 0 0.5 1; 0 0 1 1" fill="freeze" /><g transform="scale(1,1) translate(0,0)"><g transform="matrix(1,0,0,1,-615,-540)" id="i24"><g clip-path="url(#i0)"><g transform="matrix(1,0,0,1,540,540)"><g><path fill="#767676" d="M69.686,-49.975C69.686,-32.455,55.484,-18.253,37.964,-18.253C20.444,-18.253,6.241,-32.455,6.241,-49.975C6.241,-67.495,20.444,-81.697,37.964,-81.697C55.484,-81.697,69.686,-67.495,69.686,-49.975Z" /></g></g><g transform="matrix(1,0,0,1,540,540)"><g><path fill="#ffffff" d="M60.395,-49.975C60.395,-37.587,50.352,-27.544,37.964,-27.544C25.576,-27.544,15.532,-37.587,15.532,-49.975C15.532,-62.363,25.576,-72.406,37.964,-72.406C50.352,-72.406,60.395,-62.363,60.395,-49.975Z" /></g></g><g><g transform="translate(577.964,490.025)"><animateTransform repeatCount="indefinite" type="translate" attributeName="transform" dur="8s" begin="0s" calcMode="spline" values="577.964 490.025; 587.964 490.025; 587.964 490.025; 577.964 490.025; 577.964 490.025" keyTimes="0; 0.041667; 0.25; 0.291667; 1" keySplines="0.9 0 0.67 1; 0 0 1 1; 0.9 0 0.67 1; 0 0 1 1" fill="freeze" /><g transform="scale(1,1) translate(-37.964,49.975)"><g><path fill="#4a4b4a" d="M43.51,-49.975C43.51,-46.912,41.027,-44.429,37.964,-44.429C34.901,-44.429,32.417,-46.912,32.417,-49.975C32.417,-53.038,34.901,-55.521,37.964,-55.521C41.027,-55.521,43.51,-53.038,43.51,-49.975Z" /></g></g></g></g><g mask="url(#i2)"><g transform="translate(577.964,527.302)"><animateTransform repeatCount="indefinite" type="translate" attributeName="transform" dur="8s" begin="0s" calcMode="spline" values="577.964 527.302; 577.964 527.302; 577.964 513.802; 577.964 513.802; 577.964 513.802; 577.964 527.302; 577.964 527.302" keyTimes="0; 0.291667; 0.4375; 0.625; 0.6875; 0.708333; 1" keySplines="0 0 1 1; 0.2 0 0.8 1; 0 0 1 1; 0 0 1 1; 0.167 0 0.833 1; 0 0 1 1" fill="freeze" /><g transform="scale(1,-1) translate(-37.964,67.198)"><g><path fill="#767676" d="M69.562,-52.698C68.18,-68.942,54.566,-81.697,37.964,-81.697C21.362,-81.697,7.747,-68.942,6.365,-52.698C6.365,-52.698,69.562,-52.698,69.562,-52.698Z" /></g></g></g></g><g display="none" transform="matrix(1,0,0,1,540,540)"><g><path fill="#767676" d="M69.686,-49.975C69.686,-32.455,55.484,-18.253,37.964,-18.253C20.444,-18.253,6.241,-32.455,6.241,-49.975C6.241,-67.495,20.444,-81.697,37.964,-81.697C55.484,-81.697,69.686,-67.495,69.686,-49.975Z" /></g></g><g mask="url(#i5)"><g transform="translate(577.964,472.802)"><animateTransform repeatCount="indefinite" type="translate" attributeName="transform" dur="8s" begin="0s" calcMode="spline" values="577.964 472.802; 577.964 472.802; 577.964 472.802; 577.964 448.802; 577.964 448.802; 577.964 472.802; 577.964 472.802" keyTimes="0; 0.625; 0.6875; 0.708333; 0.875; 0.9375; 1" keySplines="0 0 1 1; 0 0 1 1; 0.9 0 0.67 1; 0 0 1 1; 0.9 0 0.67 1; 0 0 1 1" fill="freeze" /><g transform="scale(1,1) translate(-37.964,67.198)"><g><path fill="#767676" d="M69.562,-52.698C68.18,-68.942,54.566,-81.697,37.964,-81.697C21.362,-81.697,7.747,-68.942,6.365,-52.698C6.365,-52.698,69.562,-52.698,69.562,-52.698Z" /></g></g></g></g><g display="none" transform="matrix(1,0,0,1,540,540)"><g><path fill="#767676" d="M69.686,-49.975C69.686,-32.455,55.484,-18.253,37.964,-18.253C20.444,-18.253,6.241,-32.455,6.241,-49.975C6.241,-67.495,20.444,-81.697,37.964,-81.697C55.484,-81.697,69.686,-67.495,69.686,-49.975Z" /></g></g></g></g></g></g></g><g id="i20"><g transform="translate(540,572)"><animateTransform repeatCount="indefinite" type="translate" attributeName="transform" dur="8s" begin="0s" calcMode="spline" values="540 572; 540 572; 540 562; 540 562; 540 582; 540 582; 540 572; 540 572" keyTimes="0; 0.320833; 0.5; 0.6875; 0.7125; 0.875; 0.9375; 1" keySplines="0 0 1 1; 0.5 0 0.5 1; 0 0 1 1; 0.33 0 0.1 1; 0 0 1 1; 0.33 0 0.5 1; 0 0 1 1" fill="freeze" /><g transform="scale(1,1) translate(0,0)"><g transform="matrix(1,0,0,1,0,0)" id="i25"><g id="i3"><path fill="#696868" d="M11.932,35.404C11.932,35.404,-11.932,35.404,-11.932,35.404C-11.932,35.404,-11.932,34.971,-11.932,34.971C-11.932,28.381,-6.59,23.039,0,23.039C0,23.039,0,23.039,0,23.039C6.59,23.039,11.932,28.381,11.932,34.971C11.932,34.971,11.932,35.404,11.932,35.404Z" /></g></g></g></g></g><g id="i20"><g transform="translate(540,572)"><animateTransform repeatCount="indefinite" type="translate" attributeName="transform" dur="8s" begin="0s" calcMode="spline" values="540 572; 540 572; 540 562; 540 562; 540 582; 540 582; 540 572; 540 572" keyTimes="0; 0.320833; 0.5; 0.6875; 0.7125; 0.875; 0.9375; 1" keySplines="0 0 1 1; 0.5 0 0.5 1; 0 0 1 1; 0.33 0 0.1 1; 0 0 1 1; 0.33 0 0.5 1; 0 0 1 1" fill="freeze" /><g transform="scale(1,1) translate(0,0)"><g id="i26"><g transform="translate(-13.829,44.565)"><animateTransform repeatCount="indefinite" type="translate" attributeName="transform" dur="8s" begin="0s" calcMode="spline" values="-13.829 44.565; -16.329 47.065; -18.829 44.565; -16.329 42.065; -13.829 44.565; -16.329 47.065; -18.829 44.565; -16.329 42.065; -13.829 44.565; -16.329 47.065; -18.829 44.565; -16.329 42.065; -13.829 44.565; -16.329 47.065; -18.829 44.565; -16.329 42.065; -13.829 44.565; -16.329 47.065; -18.829 44.565; -16.329 42.065; -13.829 44.565; -16.329 47.065; -18.829 44.565; -16.329 42.065; -13.829 44.565; -16.329 47.065; -18.829 44.565; -16.329 42.065; -13.829 44.565; -16.329 47.065; -18.829 44.565; -16.329 42.065; -13.829 44.565; -16.329 47.065; -18.829 44.565; -16.329 42.065; -13.829 44.565; -16.329 47.065; -18.829 44.565; -16.329 42.065; -13.829 44.565; -16.329 47.065; -18.829 44.565; -16.329 42.065; -13.829 44.565; -16.329 47.065; -18.829 44.565; -16.329 42.065; -13.829 44.565; -16.329 47.065; -18.829 44.565; -16.329 42.065; -13.829 44.565; -16.329 47.065; -18.829 44.565; -16.329 42.065; -13.829 44.565; -16.329 47.065; -18.829 44.565; -16.329 42.065; -13.829 44.565; -16.329 47.065; -18.829 44.565; -16.329 42.065; -13.829 44.565; -16.329 47.065; -18.829 44.565; -16.329 42.065; -13.829 44.565; -16.329 47.065; -18.829 44.565; -16.329 42.065; -13.829 44.565; -16.329 47.065; -18.829 44.565; -16.329 42.065; -13.829 44.565; -16.329 47.065; -18.829 44.565; -16.329 42.065; -13.829 44.565" keyTimes="0; 0.0125; 0.025; 0.0375; 0.05; 0.0625; 0.075; 0.0875; 0.1; 0.1125; 0.125; 0.1375; 0.15; 0.1625; 0.175; 0.1875; 0.2; 0.2125; 0.225; 0.2375; 0.25; 0.2625; 0.275; 0.2875; 0.3; 0.3125; 0.325; 0.3375; 0.35; 0.3625; 0.375; 0.3875; 0.4; 0.4125; 0.425; 0.4375; 0.45; 0.4625; 0.475; 0.4875; 0.5; 0.5125; 0.525; 0.5375; 0.55; 0.5625; 0.575; 0.5875; 0.6; 0.6125; 0.625; 0.6375; 0.65; 0.6625; 0.675; 0.6875; 0.7; 0.7125; 0.725; 0.7375; 0.75; 0.7625; 0.775; 0.7875; 0.8; 0.8125; 0.825; 0.8375; 0.85; 0.8625; 0.875; 0.8875; 0.9; 0.9125; 0.925; 0.9375; 0.95; 0.9625; 0.975; 0.9875; 1" keySplines="0.9 0 0.1 1; 0.9 0 0.1 1; 0.9 0 0.1 1; 0.9 0 0.1 1; 0.167 0 0.1 1; 0.9 0 0.1 1; 0.9 0 0.1 1; 0.9 0 0.1 1; 0.167 0 0.1 1; 0.9 0 0.1 1; 0.9 0 0.1 1; 0.9 0 0.1 1; 0.167 0 0.1 1; 0.9 0 0.1 1; 0.9 0 0.1 1; 0.9 0 0.1 1; 0.167 0 0.1 1; 0.9 0 0.1 1; 0.9 0 0.1 1; 0.9 0 0.1 1; 0.167 0 0.1 1; 0.9 0 0.1 1; 0.9 0 0.1 1; 0.9 0 0.1 1; 0.167 0 0.1 1; 0.9 0 0.1 1; 0.9 0 0.1 1; 0.9 0 0.1 1; 0.167 0 0.1 1; 0.9 0 0.1 1; 0.9 0 0.1 1; 0.9 0 0.1 1; 0.167 0 0.1 1; 0.9 0 0.1 1; 0.9 0 0.1 1; 0.9 0 0.1 1; 0.167 0 0.1 1; 0.9 0 0.1 1; 0.9 0 0.1 1; 0.9 0 0.1 1; 0.167 0 0.1 1; 0.9 0 0.1 1; 0.9 0 0.1 1; 0.9 0 0.1 1; 0.167 0 0.1 1; 0.9 0 0.1 1; 0.9 0 0.1 1; 0.9 0 0.1 1; 0.167 0 0.1 1; 0.9 0 0.1 1; 0.9 0 0.1 1; 0.9 0 0.1 1; 0.167 0 0.1 1; 0.9 0 0.1 1; 0.9 0 0.1 1; 0.9 0 0.1 1; 0.167 0 0.1 1; 0.9 0 0.1 1; 0.9 0 0.1 1; 0.9 0 0.1 1; 0.167 0 0.1 1; 0.9 0 0.1 1; 0.9 0 0.1 1; 0.9 0 0.1 1; 0.167 0 0.1 1; 0.9 0 0.1 1; 0.9 0 0.1 1; 0.9 0 0.1 1; 0.167 0 0.1 1; 0.9 0 0.1 1; 0.9 0 0.1 1; 0.9 0 0.1 1; 0.167 0 0.1 1; 0.9 0 0.1 1; 0.9 0 0.1 1; 0.9 0 0.1 1; 0.167 0 0.1 1; 0.9 0 0.1 1; 0.9 0 0.1 1; 0.9 0 0.1 1" fill="freeze" /><g transform="scale(1,1) translate(13.829,-44.565)"><g id="i3"><path fill="#4a4b4a" d="M-15.552,52.205C-15.816,52.205,-16.079,52.101,-16.276,51.895C-16.656,51.495,-16.641,50.861,-16.241,50.48C-10.002,44.545,-14.967,38.833,-15.181,38.593C-15.548,38.182,-15.514,37.55,-15.104,37.182C-14.693,36.814,-14.064,36.845,-13.694,37.255C-13.628,37.327,-7.194,44.636,-14.863,51.93C-15.056,52.114,-15.304,52.205,-15.552,52.205Z" /></g></g></g></g></g></g></g><g id="i20"><g transform="translate(540,572)"><animateTransform repeatCount="indefinite" type="translate" attributeName="transform" dur="8s" begin="0s" calcMode="spline" values="540 572; 540 572; 540 562; 540 562; 540 582; 540 582; 540 572; 540 572" keyTimes="0; 0.320833; 0.5; 0.6875; 0.7125; 0.875; 0.9375; 1" keySplines="0 0 1 1; 0.5 0 0.5 1; 0 0 1 1; 0.33 0 0.1 1; 0 0 1 1; 0.33 0 0.5 1; 0 0 1 1" fill="freeze" /><g transform="scale(1,1) translate(0,0)"><g transform="matrix(1,0,0,1,0.75,0.75)" id="i27"><g id="i3"><path fill="#4a4b4a" d="M-0.024,48.322C-3.725,48.322,-7.888,47.291,-12.431,44.673C-12.91,44.398,-13.074,43.787,-12.799,43.308C-12.524,42.829,-11.912,42.663,-11.433,42.94C5.863,52.905,15.268,38.04,15.66,37.402C15.949,36.931,16.564,36.782,17.035,37.073C17.506,37.361,17.653,37.975,17.366,38.446C14.802,42.642,8.66,48.322,-0.024,48.322Z" /></g></g></g></g></g><g id="i20"><g transform="translate(540,572)"><animateTransform repeatCount="indefinite" type="translate" attributeName="transform" dur="8s" begin="0s" calcMode="spline" values="540 572; 540 572; 540 562; 540 562; 540 582; 540 582; 540 572; 540 572" keyTimes="0; 0.320833; 0.5; 0.6875; 0.7125; 0.875; 0.9375; 1" keySplines="0 0 1 1; 0.5 0 0.5 1; 0 0 1 1; 0.33 0 0.1 1; 0 0 1 1; 0.33 0 0.5 1; 0 0 1 1" fill="freeze" /><g transform="scale(1,1) translate(0,0)"><g transform="matrix(1,0,0,1,0,0)" id="i28"><g id="i3"><path fill="#4a4b4a" d="M4.824,47.684C4.679,47.684,4.533,47.652,4.393,47.585C-2.996,44.035,-0.994,35.259,-0.973,35.171C-0.844,34.634,-0.302,34.304,0.232,34.431C0.769,34.559,1.1,35.098,0.973,35.634C0.973,35.634,0.973,35.634,0.973,35.634C0.903,35.931,-0.665,42.936,5.258,45.782C5.756,46.021,5.966,46.619,5.727,47.116C5.555,47.474,5.197,47.684,4.824,47.684Z" /></g></g></g></g></g><g opacity="0" visibility="hidden" id="i29"><animate repeatCount="indefinite" begin="0s" calcMode="discrete" dur="8s" values="hidden; visible; hidden; hidden" keyTimes="0; 0.713; 0.938; 1" attributeName="visibility" /><animate repeatCount="indefinite" attributeName="opacity" dur="8s" begin="0s" fill="freeze" values="0; 0; 1; 1; 0; 0" keyTimes="0; 0.7125; 0.875; 0.908333; 0.9375; 1" keySplines="0 0 1 1; 0.2 0 0.8 1; 0.2 0 0.833 1; 0 0 1 1; 0 0 1 1" calcMode="spline" /><g transform="translate(509.12,591.62) scale(1,1) translate(25.88,-51.62)"><g id="i16" transform="matrix(1,0,0,1,-25.88,51.62)"><ellipse ry="5.12" rx="5.12" cy="0" cx="0" fill="#cf80bc" /></g></g></g><g opacity="0" visibility="hidden" id="i30"><animate repeatCount="indefinite" begin="0s" calcMode="discrete" dur="8s" values="hidden; visible; hidden; hidden" keyTimes="0; 0.713; 0.938; 1" attributeName="visibility" /><animate repeatCount="indefinite" attributeName="opacity" dur="8s" begin="0s" fill="freeze" values="0; 0; 1; 1; 0; 0" keyTimes="0; 0.7125; 0.875; 0.908333; 0.9375; 1" keySplines="0 0 1 1; 0.2 0 0.8 1; 0.2 0 0.833 1; 0 0 1 1; 0 0 1 1" calcMode="spline" /><g transform="translate(571.12,591.62) scale(1,1) translate(25.88,-51.62)"><g id="i16" transform="matrix(1,0,0,1,-25.88,51.62)"><ellipse ry="5.12" rx="5.12" cy="0" cx="0" fill="#cf80bc" /></g></g></g></svg>