<svg fill="none" height="100%" width="100%" viewBox="0 0 1920 1080" xmlns:xlink="http://www.w3.org/1999/xlink" xmlns="http://www.w3.org/2000/svg"><g transform="matrix(1,0,0,1,735.811,323.346)" id="i0"><g transform="matrix(1,0,0,1,220.635,253.797)" id="i1"><g id="i2" transform="matrix(1,0,0,1,269.858,170.213)"><path d="M-119.858,-9.575C-119.858,-9.575,-73.759,-11.703,-23.404,-15.958C26.951,-20.213,100,-6.738,119.858,20.212" stroke-miterlimit="10" stroke-linecap="round" stroke-width="60" stroke="#1c100e"><animate repeatCount="indefinite" attributeName="d" dur="2s" begin="0s" calcMode="spline" values="M-119.858,-9.575C-119.858,-9.575,-73.759,-11.703,-23.404,-15.958C26.951,-20.213,100,-6.738,119.858,20.212; M-119.858,-9.575C-119.858,-9.575,-73.759,-11.703,-23.404,-15.958C26.951,-20.213,100,-6.738,119.858,20.212; M-119.858,-9.575C-119.858,-9.575,-31.679,-54.748,17.596,-65.958C67.695,-77.355,100.695,-59.355,124.858,-16.788; M-119.858,-9.575C-119.858,-9.575,-47.259,-5.703,3.096,-9.958C53.451,-14.213,87.695,-25.355,123.358,-54.288; M-119.858,-9.575C-119.858,-9.575,-73.759,-11.703,-23.404,-15.958C26.951,-20.213,100,-6.738,119.858,20.212; M-119.858,-9.575C-119.858,-9.575,-73.759,-11.703,-23.404,-15.958C26.951,-20.213,100,-6.738,119.858,20.212" keyTimes="0; 0.1; 0.42; 0.66004; 0.9; 1" keySplines="0 0 1 1; 0 0 1 1; 0 0 1 1; 0 0 1 1; 0 0 1 1" fill="freeze" /></path></g></g></g><g transform="matrix(1,0,0,1,735.811,323.346)" id="i0"><g id="i3" transform="matrix(1,0,0,1,225.6,231.81)"><path fill="#1c100e" d="M-123.758,193.94C-123.758,193.94,171.987,231.561,182.625,209.575C193.263,187.589,176.242,171.277,182.625,127.305C189.008,83.334,193.972,77.66,194.682,21.632C195.391,-34.397,209.574,-135.106,93.262,-164.184C-23.05,-193.262,15.249,-204.609,-22.34,-218.085C-59.928,-231.56,-180.497,-154.256,-149.291,-78.369C-118.085,-2.483,-118.084,-3.9,-125.176,29.433C-132.269,62.766,-152.127,147.164,-168.439,152.837C-184.751,158.511,-209.574,174.114,-194.68,190.426C-179.786,206.738,-123.758,193.94,-123.758,193.94Z" /></g><g id="i4" transform="matrix(1,0,0,1,212.337,320.818)"><path fill="#ffffff" d="M33.476,74.468C74.519,71,80.285,79.433,49.079,34.042C17.873,-11.348,36.313,1.418,20.71,-39.007C5.107,-79.433,-28.935,-68.794,-45.247,-27.66C-61.559,13.475,-80.285,35.177,-65.392,43.687C-50.498,52.198,-16.879,78.723,33.476,74.468Z" /></g><g id="i5" transform="matrix(1,0,0,1,291.118,420.475)"><path fill="#ffffff" d="M-53.829,20.089C-46.147,26.258,-34.322,25.792,-5.589,27.805C28.871,30.218,58.95,6.725,17.815,-6.75C-23.32,-20.225,-44.765,-30.219,-51.857,-13.197C-58.95,3.824,-58.068,16.685,-53.829,20.089Z" /></g><g id="i6" transform="matrix(1,0,0,1,147.216,404.361)"><path fill="#ffffff" d="M28.929,30.03C41.287,29.112,35.416,8.88,5.629,-11.688C-24.158,-32.255,-41.287,2.938,-39.112,17.396C-36.937,31.854,-1.023,32.255,28.929,30.03Z" /></g><g id="i2" transform="matrix(1,0,0,1,46.264,410.706)"><path fill="#ffffff" d="M4.986,22.604C31.179,26.483,38.674,24.687,41.393,14.971C46.014,-1.548,22.661,-23.42,-4.707,-24.641C-46.014,-26.484,-43.714,15.785,-27.402,18.622C-11.09,21.459,4.986,22.604,4.986,22.604Z" /></g></g><g transform="matrix(1,0,0,1,735.811,323.346)" id="i0"><g id="i7"><g transform="translate(174.876,53.291)"><g transform="rotate(-9)"><animateTransform repeatCount="indefinite" type="rotate" attributeName="transform" dur="2s" begin="0s" calcMode="spline" values="-9; 0; -3; -9; -9" keyTimes="0; 0.2; 0.5; 0.7; 1" keySplines="0 0 1 1; 0 0 1 1; 0 0 1 1; 0 0 1 1" fill="freeze" /><g transform="scale(1,1) translate(-82.57,-1.327)"><g id="i2" transform="matrix(1,0,0,1,77.939,117.335)"><path fill="#1c100e" d="M-58.641,70.825C-65.852,103.539,-36.872,111.642,-4.219,114.363C28.434,117.085,74.012,79.67,68.57,23.887C63.128,-31.895,77.689,-115.266,15.509,-115.993C-77.689,-117.084,-30.75,-55.706,-58.641,70.825Z" /></g></g></g></g></g></g><g transform="matrix(1,0,0,1,735.811,323.346)" id="i0"><g id="i7"><g transform="translate(174.876,53.291)"><g transform="rotate(-9)"><animateTransform repeatCount="indefinite" type="rotate" attributeName="transform" dur="2s" begin="0s" calcMode="spline" values="-9; 0; -3; -9; -9" keyTimes="0; 0.2; 0.5; 0.7; 1" keySplines="0 0 1 1; 0 0 1 1; 0 0 1 1; 0 0 1 1" fill="freeze" /><g transform="scale(1,1) translate(-82.57,-1.327)"><g id="i8"><g transform="translate(78.245,177.827)"><g transform="rotate(0)"><animateTransform repeatCount="indefinite" type="rotate" attributeName="transform" dur="2s" begin="0s" calcMode="spline" values="0; 3; 3; 0; 0" keyTimes="0; 0.3; 0.4; 0.7; 1" keySplines="0 0 1 1; 0 0 1 1; 0 0 1 1; 0 0 1 1" fill="freeze" /><g transform="scale(1,1) translate(-178.446,-42.695)"><g id="i2" transform="matrix(1,0,0,1,95.366,46.816)"><path fill="#1c100e" d="M-90.536,-15.706C-92.763,-28.474,-95.116,-46.565,-46.527,-44.722C-13.411,-43.466,32.688,-43.292,57.129,-41.777C81.571,-40.263,95.116,-1.689,68.613,22.438C42.11,46.565,7.068,33.608,-21.791,28.896C-50.65,24.185,-86.119,9.619,-90.536,-15.706Z" /></g></g></g></g></g></g></g></g></g></g><g transform="matrix(1,0,0,1,735.811,323.346)" id="i0"><g id="i7"><g transform="translate(174.876,53.291)"><g transform="rotate(-9)"><animateTransform repeatCount="indefinite" type="rotate" attributeName="transform" dur="2s" begin="0s" calcMode="spline" values="-9; 0; -3; -9; -9" keyTimes="0; 0.2; 0.5; 0.7; 1" keySplines="0 0 1 1; 0 0 1 1; 0 0 1 1; 0 0 1 1" fill="freeze" /><g transform="scale(1,1) translate(-82.57,-1.327)"><g id="i8"><g transform="translate(78.245,177.827)"><g transform="rotate(0)"><animateTransform repeatCount="indefinite" type="rotate" attributeName="transform" dur="2s" begin="0s" calcMode="spline" values="0; 3; 3; 0; 0" keyTimes="0; 0.3; 0.4; 0.7; 1" keySplines="0 0 1 1; 0 0 1 1; 0 0 1 1; 0 0 1 1" fill="freeze" /><g transform="scale(1,1) translate(-178.446,-42.695)"><g id="i9"><g transform="translate(50.396,26.233)"><g transform="rotate(0)"><animateTransform repeatCount="indefinite" type="rotate" attributeName="transform" dur="2s" begin="0s" calcMode="spline" values="0; -14; -14; 0; 0" keyTimes="0; 0.2; 0.3; 0.6; 1" keySplines="0 0 1 1; 0 0 1 1; 0 0 1 1; 0 0 1 1" fill="freeze" /><g transform="scale(1,1) translate(-144.038,-36.826)"><g id="i6" transform="matrix(1,0,0,1,81.759,37.991)"><path fill="#1c100e" d="M61.252,-11.238C57.813,-22.318,56.468,-25.589,27.682,-28.023C5.626,-29.888,-28.859,-28.023,-47.706,-30.379C-66.553,-32.735,-45.014,20.271,-21.161,26.455C2.692,32.639,10.424,32.78,29.742,27.339C50.65,21.449,66.553,5.842,61.252,-11.238Z" /></g><g id="i2" transform="matrix(1,0,0,1,32.464,35.588)"><path fill="#ffffff" d="M22.035,2.808C16.902,-9.424,3.492,-35.337,-12.626,-30.625C-28.743,-25.914,-32.215,3.534,-5.595,19.436C21.024,35.338,28.091,28.859,30.153,21.203C32.214,13.546,22.035,2.808,22.035,2.808Z" /></g></g></g></g></g></g></g></g></g></g></g></g></g></g><g transform="matrix(1,0,0,1,735.811,323.346)" id="i0"><g id="i10"><g transform="translate(86.948,79.81)"><g transform="rotate(0)"><animateTransform repeatCount="indefinite" type="rotate" attributeName="transform" dur="2s" begin="0s" calcMode="spline" values="0; -4; 0; 0" keyTimes="0; 0.5; 0.7; 1" keySplines="0 0 1 1; 0 0 1 1; 0 0 1 1" fill="freeze" /><g transform="scale(1,1) translate(-152.732,-96.831)"><g id="i6" transform="matrix(1,0,0,1,152.732,96.831)"><path fill="#1c100e" d="M87.234,-50.482C65.23,-70.572,-40.621,-94.29,-68.824,-92.922C-99.504,-91.434,-111.012,-88.467,-131.373,-44.354C-149.858,-4.307,-126.842,49.409,-85.816,59.447C-85.816,59.447,-31.893,61.12,-4.234,78.851C23.426,96.581,152.482,9.092,87.234,-50.482Z" /></g><g id="i2" transform="matrix(1,0,0,1,122.497,132.747)"><path fill="#ffffff" d="M-53.781,15.499C-52.51,-6.735,-26.121,21.173,-11.228,-7.905C3.666,-36.983,13.963,-53.089,16.432,-30.6C18.9,-8.112,55.199,-5.068,51.063,15.499C46.928,36.066,46.727,53.088,3.666,35.357C-39.395,17.627,-55.199,40.322,-53.781,15.499Z" /></g></g></g></g></g></g><g transform="matrix(1,0,0,1,735.811,323.346)" id="i0"><g id="i10"><g transform="translate(86.948,79.81)"><g transform="rotate(0)"><animateTransform repeatCount="indefinite" type="rotate" attributeName="transform" dur="2s" begin="0s" calcMode="spline" values="0; -4; 0; 0" keyTimes="0; 0.5; 0.7; 1" keySplines="0 0 1 1; 0 0 1 1; 0 0 1 1" fill="freeze" /><g transform="scale(1,1) translate(-152.732,-96.831)"><g id="i11"><g transform="translate(50.952,94.896)"><g transform="rotate(-13)"><animateTransform repeatCount="indefinite" type="rotate" attributeName="transform" dur="2s" begin="0s" calcMode="spline" values="-13; 0; 7; -13; -13" keyTimes="0; 0.2; 0.5; 0.78; 1" keySplines="0 0 1 1; 0 0 1 1; 0 0 1 1; 0 0 1 1" fill="freeze" /><g transform="scale(1,1) translate(-90.242,-101.256)"><g id="i12"><g transform="translate(43.64,172.508)"><g transform="scale(0,0)"><animateTransform repeatCount="indefinite" type="scale" attributeName="transform" dur="2s" begin="0s" calcMode="spline" values="0 0; 1 1; 1 1; 0 0; 0 0" keyTimes="0; 0.2; 0.5; 0.7; 1" keySplines="0 0 1 1; 0 0 1 1; 0 0 1 1; 0 0 1 1" fill="freeze" /><g transform="translate(-2.413,-12.311)"><g id="i6" transform="matrix(1,0,0,1,41.477,31.17)"><path fill="#79212d" d="M-25.325,-6.997C-25.325,-6.997,-23.558,15.902,8.834,19.141C41.227,22.381,8.342,30.92,-6.578,27.387C-21.497,23.853,-41.227,25.031,-38.871,-2.945C-36.515,-30.92,-25.325,-15.172,-25.325,-6.997Z" /></g><g id="i2" transform="matrix(1,0,0,1,45.03,36.216)"><path fill="#a94860" d="M-28.878,-12.043C-28.878,-12.043,-27.111,10.856,5.281,14.095C37.674,17.335,4.788,25.874,-10.132,22.341C-25.051,18.807,-37.674,7.576,-36.241,-7.402C-34.474,-25.874,-28.878,-20.218,-28.878,-12.043Z" /></g></g></g></g></g></g></g></g></g></g></g></g></g></g><g transform="matrix(1,0,0,1,735.811,323.346)" id="i0"><g id="i10"><g transform="translate(86.948,79.81)"><g transform="rotate(0)"><animateTransform repeatCount="indefinite" type="rotate" attributeName="transform" dur="2s" begin="0s" calcMode="spline" values="0; -4; 0; 0" keyTimes="0; 0.5; 0.7; 1" keySplines="0 0 1 1; 0 0 1 1; 0 0 1 1" fill="freeze" /><g transform="scale(1,1) translate(-152.732,-96.831)"><g id="i11"><g transform="translate(50.952,94.896)"><g transform="rotate(-13)"><animateTransform repeatCount="indefinite" type="rotate" attributeName="transform" dur="2s" begin="0s" calcMode="spline" values="-13; 0; 7; -13; -13" keyTimes="0; 0.2; 0.5; 0.78; 1" keySplines="0 0 1 1; 0 0 1 1; 0 0 1 1; 0 0 1 1" fill="freeze" /><g transform="scale(1,1) translate(-90.242,-101.256)"><g id="i6" transform="matrix(1,0,0,1,90.241,101.256)"><path fill="#1c100e" d="M7.955,82.105C19.734,63.483,38.695,78.921,56.07,50.651C73.444,22.381,89.566,-25.504,83.219,-49.767C75.931,-77.63,32.511,-101.006,-15.489,-84.221C-63.489,-67.435,-80.568,-23.852,-83.219,-4.711C-85.869,14.43,-89.992,30.037,-85.575,36.81C-81.157,43.583,-75.268,41.227,-76.74,54.773C-78.213,68.319,-83.512,82.454,-66.433,85.988C-66.433,85.988,-55.242,98.651,-32.862,91.289C-32.862,91.289,-29.967,101.006,-14.654,98.945C0.659,96.884,3.354,89.379,7.955,82.105Z" /></g><g id="i2" transform="matrix(1,0,0,1,47.397,183.971)"><path stroke-miterlimit="10" stroke-width="1" stroke="#ffffff" fill="#ffffff" d="M8.982,8.574C-13.515,15.573,-24.589,3.273,-24.589,3.273C-24.589,3.273,-18.405,2.095,-18.405,-9.684C-18.405,-9.684,2.209,2.095,13.399,-6.739C24.589,-15.573,22.234,4.451,8.982,8.574Z" /></g></g></g></g></g></g></g></g></g></g><g transform="matrix(1,0,0,1,735.811,323.346)" id="i0"><g id="i10"><g transform="translate(86.948,79.81)"><g transform="rotate(0)"><animateTransform repeatCount="indefinite" type="rotate" attributeName="transform" dur="2s" begin="0s" calcMode="spline" values="0; -4; 0; 0" keyTimes="0; 0.5; 0.7; 1" keySplines="0 0 1 1; 0 0 1 1; 0 0 1 1" fill="freeze" /><g transform="scale(1,1) translate(-152.732,-96.831)"><g id="i11"><g transform="translate(50.952,94.896)"><g transform="rotate(-13)"><animateTransform repeatCount="indefinite" type="rotate" attributeName="transform" dur="2s" begin="0s" calcMode="spline" values="-13; 0; 7; -13; -13" keyTimes="0; 0.2; 0.5; 0.78; 1" keySplines="0 0 1 1; 0 0 1 1; 0 0 1 1; 0 0 1 1" fill="freeze" /><g transform="scale(1,1) translate(-90.242,-101.256)"><g transform="matrix(1,0,0,1,7.362,1.767)" id="i13"><g id="i2" transform="matrix(1,0,0,1,50.458,36.177)"><path fill="#1c100e" d="M-26.944,15.018C-32.905,1.08,-42.551,-9.424,-46.38,-20.319C-50.208,-31.215,-48.735,-35.927,-44.318,-34.749C-39.901,-33.571,2.042,-20.025,19.794,-18.553C37.546,-17.08,50.208,1.178,39.018,18.553C27.828,35.927,-19.991,31.278,-26.944,15.018Z" /></g></g></g></g></g></g></g></g></g></g></g><g transform="matrix(1,0,0,1,735.811,323.346)" id="i0"><g id="i10"><g transform="translate(86.948,79.81)"><g transform="rotate(0)"><animateTransform repeatCount="indefinite" type="rotate" attributeName="transform" dur="2s" begin="0s" calcMode="spline" values="0; -4; 0; 0" keyTimes="0; 0.5; 0.7; 1" keySplines="0 0 1 1; 0 0 1 1; 0 0 1 1" fill="freeze" /><g transform="scale(1,1) translate(-152.732,-96.831)"><g id="i11"><g transform="translate(50.952,94.896)"><g transform="rotate(-13)"><animateTransform repeatCount="indefinite" type="rotate" attributeName="transform" dur="2s" begin="0s" calcMode="spline" values="-13; 0; 7; -13; -13" keyTimes="0; 0.2; 0.5; 0.78; 1" keySplines="0 0 1 1; 0 0 1 1; 0 0 1 1; 0 0 1 1" fill="freeze" /><g transform="scale(1,1) translate(-90.242,-101.256)"><g transform="matrix(1,0,0,1,17.08,-12.172)" id="i14"><g id="i2" transform="matrix(1,0,0,1,44.716,45.06)"><path fill="#1c100e" d="M-40.343,-37.938C-33.471,-44.81,-10.895,-30.282,0.295,-26.159C11.485,-22.036,44.466,-17.03,39.754,-4.073C35.042,8.884,19.141,44.81,-8.246,31.264C-35.632,17.718,-44.466,-33.815,-40.343,-37.938Z" /></g></g></g></g></g></g></g></g></g></g></g></svg>