<svg fill="none" height="100%" width="100%" viewBox="0 0 1920 1080" xmlns:xlink="http://www.w3.org/1999/xlink" xmlns="http://www.w3.org/2000/svg"><g id="i0"><g transform="translate(705.535,556.333)"><animateTransform repeatCount="indefinite" type="translate" attributeName="transform" dur="2.035s" begin="0s" calcMode="spline" values="705.535 556.333; 1213.535 556.333; 705.535 556.333; 705.535 556.333" keyTimes="0; 0.491803; 0.983607; 1" keySplines="0.58 0 0.42 1; 0.58 0 0.42 1; 0 0 1 1" fill="freeze" /><g transform="scale(1,1) translate(-960,-540)"><g id="i1"><g transform="translate(874.253,656.371)"><g transform="rotate(0)"><animateTransform repeatCount="indefinite" type="rotate" attributeName="transform" dur="2.035s" begin="0s" calcMode="spline" values="0; -14.4; 0; -14.4; 0; 0" keyTimes="0; 0.229508; 0.491803; 0.721311; 0.983607; 1" keySplines="0.45 0 0.55 1; 0.45 0 0.55 1; 0.45 0 0.55 1; 0.45 0 0.55 1; 0 0 1 1" fill="freeze" /><g transform="scale(1,1) translate(-874.253,-656.371)"><g id="i2" transform="matrix(1,0,0,1,772.019,586.448)"><path fill="#d50f4f" d="M-18.935,88.284C-18.935,88.284,102.87,88.284,102.87,88.284C111.774,88.284,118.992,81.064,118.992,72.162C118.992,63.258,111.774,56.041,102.87,56.041C102.87,56.041,-18.935,56.041,-18.935,56.041C-56.327,56.041,-86.749,25.62,-86.749,-11.772C-86.749,-11.772,-86.749,-72.163,-86.749,-72.163C-86.749,-81.067,-93.968,-88.284,-102.87,-88.284C-111.774,-88.284,-118.992,-81.067,-118.992,-72.163C-118.992,-72.163,-118.992,-11.772,-118.992,-11.772C-118.992,43.398,-74.108,88.284,-18.935,88.284Z" /></g><g id="i3" transform="matrix(1,0,0,1,669.458,467.064)"><path fill="#ee2761" d="M1.433,-13.228C1.433,-13.228,96.562,-108.357,96.562,-108.357C117.622,-85.188,130.458,-54.41,130.458,-20.633C130.458,51.416,72.05,109.823,0,109.823C-72.049,109.823,-130.458,51.416,-130.458,-20.633C-130.458,-55.139,-117.038,-86.492,-95.162,-109.823C-95.162,-109.823,1.433,-13.228,1.433,-13.228Z" /></g><g id="i4" transform="matrix(1,0,0,1,669.458,495.196)"><path fill="#d50f4f" d="M0,15.745C60.641,15.745,111.608,-25.631,126.233,-81.691C128.969,-71.17,130.458,-60.143,130.458,-48.764C130.458,23.285,72.05,81.691,0,81.691C-72.049,81.691,-130.458,23.285,-130.458,-48.764C-130.458,-60.143,-128.971,-71.169,-126.23,-81.686C-111.604,-25.63,-60.639,15.745,0,15.745Z" /></g></g></g></g></g></g></g></g><g id="i0"><g transform="translate(705.535,556.333)"><animateTransform repeatCount="indefinite" type="translate" attributeName="transform" dur="2.035s" begin="0s" calcMode="spline" values="705.535 556.333; 1213.535 556.333; 705.535 556.333; 705.535 556.333" keyTimes="0; 0.491803; 0.983607; 1" keySplines="0.58 0 0.42 1; 0.58 0 0.42 1; 0 0 1 1" fill="freeze" /><g transform="scale(1,1) translate(-960,-540)"><g id="i5"><g transform="translate(1155.992,662.495)"><g transform="rotate(0)"><animateTransform repeatCount="indefinite" type="rotate" attributeName="transform" dur="2.035s" begin="0s" calcMode="spline" values="0; 11.3; 0; 11.3; 0; 0" keyTimes="0; 0.229508; 0.491803; 0.721311; 0.983607; 1" keySplines="0.45 0 0.55 1; 0.45 0 0.55 1; 0.45 0 0.55 1; 0.45 0 0.55 1; 0 0 1 1" fill="freeze" /><g transform="scale(1,1) translate(-1155.992,-662.495)"><g id="i6" transform="matrix(1,0,0,1,1265.293,586.448)"><path fill="#d50f4f" d="M18.936,88.284C18.936,88.284,-102.87,88.284,-102.87,88.284C-111.772,88.284,-118.991,81.064,-118.991,72.162C-118.991,63.258,-111.772,56.041,-102.87,56.041C-102.87,56.041,18.936,56.041,18.936,56.041C56.328,56.041,86.75,25.62,86.75,-11.772C86.75,-11.772,86.75,-72.163,86.75,-72.163C86.75,-81.067,93.968,-88.284,102.87,-88.284C111.774,-88.284,118.991,-81.067,118.991,-72.163C118.991,-72.163,118.991,-11.772,118.991,-11.772C118.991,43.398,74.109,88.284,18.936,88.284Z" /></g><g id="i7" transform="matrix(1,0,0,1,1367.855,467.064)"><path fill="#ee2761" d="M-1.433,-13.228C-1.433,-13.228,-96.562,-108.357,-96.562,-108.357C-117.621,-85.188,-130.458,-54.41,-130.458,-20.633C-130.458,51.416,-72.049,109.823,0,109.823C72.049,109.823,130.458,51.416,130.458,-20.633C130.458,-55.139,117.039,-86.492,95.163,-109.823C95.163,-109.823,-1.433,-13.228,-1.433,-13.228Z" /></g><g id="i8" transform="matrix(1,0,0,1,1367.854,495.196)"><path fill="#d50f4f" d="M0,15.745C-60.639,15.745,-111.607,-25.631,-126.232,-81.691C-128.969,-71.17,-130.458,-60.143,-130.458,-48.764C-130.458,23.285,-72.049,81.691,0,81.691C72.05,81.691,130.458,23.285,130.458,-48.764C130.458,-60.143,128.971,-71.169,126.232,-81.686C111.606,-25.63,60.639,15.745,0,15.745Z" /></g></g></g></g></g></g></g></g><g id="i0"><g transform="translate(705.535,556.333)"><animateTransform repeatCount="indefinite" type="translate" attributeName="transform" dur="2.035s" begin="0s" calcMode="spline" values="705.535 556.333; 1213.535 556.333; 705.535 556.333; 705.535 556.333" keyTimes="0; 0.491803; 0.983607; 1" keySplines="0.58 0 0.42 1; 0.58 0 0.42 1; 0 0 1 1" fill="freeze" /><g transform="scale(1,1) translate(-960,-540)"><g id="i9"><g transform="translate(863.582,723.805)"><g transform="rotate(11.6)"><animateTransform repeatCount="indefinite" type="rotate" attributeName="transform" dur="2.035s" begin="0s" calcMode="spline" values="11.6; -7.6; 16; -10.6; 22.8; 0.6; 11.6; -7.6; 16; -10.6; 22.8; 11.6; -7.6; 16; -10.6; 22.8; 0.6; 11.6; -7.6; 16; -10.6; 22.8; 0.6; 0.6" keyTimes="0; 0.040541; 0.081082; 0.129721; 0.178345; 0.226984; 0.264819; 0.305344; 0.345902; 0.394525; 0.443181; 0.491803; 0.532345; 0.572885; 0.621524; 0.670148; 0.718787; 0.756623; 0.797147; 0.837705; 0.886328; 0.934984; 0.983607; 1" keySplines="0.45 0 0.55 1; 0.45 0 0.55 1; 0.45 0 0.55 1; 0.45 0 0.55 1; 0.45 0 0.55 1; 0.45 0 0.55 1; 0.45 0 0.55 1; 0.45 0 0.55 1; 0.45 0 0.55 1; 0.45 0 0.55 1; 0.45 0 0.55 1; 0.45 0 0.55 1; 0.45 0 0.55 1; 0.45 0 0.55 1; 0.45 0 0.55 1; 0.45 0 0.55 1; 0.45 0 0.55 1; 0.45 0 0.55 1; 0.45 0 0.55 1; 0.45 0 0.55 1; 0.45 0 0.55 1; 0.45 0 0.55 1; 0 0 1 1" fill="freeze" /><g transform="scale(0.949,1.254) translate(217.883,-203.138)"><g id="i10" transform="matrix(1,0,0,1,-217.883,240.907)"><rect ry="20" rx="20" height="75.539" width="34.707" y="-37.77" x="-17.354" stroke-width="0" stroke="#ffffff" fill="#000000" /></g></g></g></g></g></g></g></g><g id="i0"><g transform="translate(705.535,556.333)"><animateTransform repeatCount="indefinite" type="translate" attributeName="transform" dur="2.035s" begin="0s" calcMode="spline" values="705.535 556.333; 1213.535 556.333; 705.535 556.333; 705.535 556.333" keyTimes="0; 0.491803; 0.983607; 1" keySplines="0.58 0 0.42 1; 0.58 0 0.42 1; 0 0 1 1" fill="freeze" /><g transform="scale(1,1) translate(-960,-540)"><g id="i11"><g transform="translate(926.582,723.805)"><g transform="rotate(11.6)"><animateTransform repeatCount="indefinite" type="rotate" attributeName="transform" dur="2.035s" begin="0s" calcMode="spline" values="11.6; -7.6; 16; -10.6; 22.8; 0.6; 11.6; -7.6; 16; -10.6; 22.8; 11.6; -7.6; 16; -10.6; 22.8; 0.6; 11.6; -7.6; 16; -10.6; 22.8; 0.6; 0.6" keyTimes="0; 0.040541; 0.081082; 0.129721; 0.178345; 0.226984; 0.264819; 0.305344; 0.345902; 0.394525; 0.443181; 0.491803; 0.532345; 0.572885; 0.621524; 0.670148; 0.718787; 0.756623; 0.797147; 0.837705; 0.886328; 0.934984; 0.983607; 1" keySplines="0.45 0 0.55 1; 0.45 0 0.55 1; 0.45 0 0.55 1; 0.45 0 0.55 1; 0.45 0 0.55 1; 0.45 0 0.55 1; 0.45 0 0.55 1; 0.45 0 0.55 1; 0.45 0 0.55 1; 0.45 0 0.55 1; 0.45 0 0.55 1; 0.45 0 0.55 1; 0.45 0 0.55 1; 0.45 0 0.55 1; 0.45 0 0.55 1; 0.45 0 0.55 1; 0.45 0 0.55 1; 0.45 0 0.55 1; 0.45 0 0.55 1; 0.45 0 0.55 1; 0.45 0 0.55 1; 0.45 0 0.55 1; 0 0 1 1" fill="freeze" /><g transform="scale(0.949,1.254) translate(217.883,-203.138)"><g id="i10" transform="matrix(1,0,0,1,-217.883,240.907)"><rect ry="20" rx="20" height="75.539" width="34.707" y="-37.77" x="-17.354" stroke-width="0" stroke="#ffffff" fill="#000000" /></g></g></g></g></g></g></g></g><g id="i0"><g transform="translate(705.535,556.333)"><animateTransform repeatCount="indefinite" type="translate" attributeName="transform" dur="2.035s" begin="0s" calcMode="spline" values="705.535 556.333; 1213.535 556.333; 705.535 556.333; 705.535 556.333" keyTimes="0; 0.491803; 0.983607; 1" keySplines="0.58 0 0.42 1; 0.58 0 0.42 1; 0 0 1 1" fill="freeze" /><g transform="scale(1,1) translate(-960,-540)"><g id="i12"><g transform="translate(1086.582,723.805)"><g transform="rotate(11.6)"><animateTransform repeatCount="indefinite" type="rotate" attributeName="transform" dur="2.035s" begin="0s" calcMode="spline" values="11.6; -7.6; 16; -10.6; 22.8; 0.6; 11.6; -7.6; 16; -10.6; 22.8; 11.6; -7.6; 16; -10.6; 22.8; 0.6; 11.6; -7.6; 16; -10.6; 22.8; 0.6; 0.6" keyTimes="0; 0.040541; 0.081082; 0.129721; 0.178345; 0.226984; 0.264819; 0.305344; 0.345902; 0.394525; 0.443181; 0.491803; 0.532345; 0.572885; 0.621524; 0.670148; 0.718787; 0.756623; 0.797147; 0.837705; 0.886328; 0.934984; 0.983607; 1" keySplines="0.45 0 0.55 1; 0.45 0 0.55 1; 0.45 0 0.55 1; 0.45 0 0.55 1; 0.45 0 0.55 1; 0.45 0 0.55 1; 0.45 0 0.55 1; 0.45 0 0.55 1; 0.45 0 0.55 1; 0.45 0 0.55 1; 0.45 0 0.55 1; 0.45 0 0.55 1; 0.45 0 0.55 1; 0.45 0 0.55 1; 0.45 0 0.55 1; 0.45 0 0.55 1; 0.45 0 0.55 1; 0.45 0 0.55 1; 0.45 0 0.55 1; 0.45 0 0.55 1; 0.45 0 0.55 1; 0.45 0 0.55 1; 0 0 1 1" fill="freeze" /><g transform="scale(0.949,1.254) translate(217.883,-203.138)"><g id="i10" transform="matrix(1,0,0,1,-217.883,240.907)"><rect ry="20" rx="20" height="75.539" width="34.707" y="-37.77" x="-17.354" stroke-width="0" stroke="#ffffff" fill="#000000" /></g></g></g></g></g></g></g></g><g id="i0"><g transform="translate(705.535,556.333)"><animateTransform repeatCount="indefinite" type="translate" attributeName="transform" dur="2.035s" begin="0s" calcMode="spline" values="705.535 556.333; 1213.535 556.333; 705.535 556.333; 705.535 556.333" keyTimes="0; 0.491803; 0.983607; 1" keySplines="0.58 0 0.42 1; 0.58 0 0.42 1; 0 0 1 1" fill="freeze" /><g transform="scale(1,1) translate(-960,-540)"><g id="i13"><g transform="translate(1149.582,723.805)"><g transform="rotate(11.6)"><animateTransform repeatCount="indefinite" type="rotate" attributeName="transform" dur="2.035s" begin="0s" calcMode="spline" values="11.6; -7.6; 16; -10.6; 22.8; 0.6; 11.6; -7.6; 16; -10.6; 22.8; 11.6; -7.6; 16; -10.6; 22.8; 0.6; 11.6; -7.6; 16; -10.6; 22.8; 0.6; 0.6" keyTimes="0; 0.040541; 0.081082; 0.129721; 0.178345; 0.226984; 0.264819; 0.305344; 0.345902; 0.394525; 0.443181; 0.491803; 0.532345; 0.572885; 0.621524; 0.670148; 0.718787; 0.756623; 0.797147; 0.837705; 0.886328; 0.934984; 0.983607; 1" keySplines="0.45 0 0.55 1; 0.45 0 0.55 1; 0.45 0 0.55 1; 0.45 0 0.55 1; 0.45 0 0.55 1; 0.45 0 0.55 1; 0.45 0 0.55 1; 0.45 0 0.55 1; 0.45 0 0.55 1; 0.45 0 0.55 1; 0.45 0 0.55 1; 0.45 0 0.55 1; 0.45 0 0.55 1; 0.45 0 0.55 1; 0.45 0 0.55 1; 0.45 0 0.55 1; 0.45 0 0.55 1; 0.45 0 0.55 1; 0.45 0 0.55 1; 0.45 0 0.55 1; 0.45 0 0.55 1; 0.45 0 0.55 1; 0 0 1 1" fill="freeze" /><g transform="scale(0.949,1.254) translate(217.883,-203.138)"><g id="i10" transform="matrix(1,0,0,1,-217.883,240.907)"><rect ry="20" rx="20" height="75.539" width="34.707" y="-37.77" x="-17.354" stroke-width="0" stroke="#ffffff" fill="#000000" /></g></g></g></g></g></g></g></g><g id="i0"><g transform="translate(705.535,556.333)"><animateTransform repeatCount="indefinite" type="translate" attributeName="transform" dur="2.035s" begin="0s" calcMode="spline" values="705.535 556.333; 1213.535 556.333; 705.535 556.333; 705.535 556.333" keyTimes="0; 0.491803; 0.983607; 1" keySplines="0.58 0 0.42 1; 0.58 0 0.42 1; 0 0 1 1" fill="freeze" /><g transform="scale(1,1) translate(-960,-540)"><g id="i4" transform="matrix(1,0,0,1,1018.656,602.755)"><path fill="#ee2761" d="M163.073,140.579C163.073,140.579,-163.073,140.579,-163.073,140.579C-205.308,140.579,-239.547,106.341,-239.547,64.104C-239.547,-48.939,-147.907,-140.579,-34.864,-140.579C-34.864,-140.579,34.863,-140.579,34.863,-140.579C147.908,-140.579,239.547,-48.939,239.547,64.104C239.547,106.341,205.308,140.579,163.073,140.579Z" /></g></g></g></g><g id="i0"><g transform="translate(705.535,556.333)"><animateTransform repeatCount="indefinite" type="translate" attributeName="transform" dur="2.035s" begin="0s" calcMode="spline" values="705.535 556.333; 1213.535 556.333; 705.535 556.333; 705.535 556.333" keyTimes="0; 0.491803; 0.983607; 1" keySplines="0.58 0 0.42 1; 0.58 0 0.42 1; 0 0 1 1" fill="freeze" /><g transform="scale(1,1) translate(-960,-540)"><g transform="matrix(1,0,0,1,0,0)" id="i14"><g id="i4" transform="matrix(1,0,0,1,1018.656,674.494)"><path fill="#d50f4f" d="M163.635,-27.878C163.635,-27.878,-162.509,-27.878,-162.509,-27.878C-191.922,-27.878,-217.441,-44.493,-230.235,-68.84C-236.283,-49.514,-239.547,-28.955,-239.547,-7.635C-239.547,34.601,-205.307,68.84,-163.073,68.84C-163.073,68.84,163.073,68.84,163.073,68.84C205.308,68.84,239.547,34.601,239.547,-7.635C239.547,-28.462,236.428,-48.559,230.646,-67.494C217.63,-43.882,192.504,-27.878,163.635,-27.878Z" /></g></g></g></g></g><g id="i0"><g transform="translate(705.535,556.333)"><animateTransform repeatCount="indefinite" type="translate" attributeName="transform" dur="2.035s" begin="0s" calcMode="spline" values="705.535 556.333; 1213.535 556.333; 705.535 556.333; 705.535 556.333" keyTimes="0; 0.491803; 0.983607; 1" keySplines="0.58 0 0.42 1; 0.58 0 0.42 1; 0 0 1 1" fill="freeze" /><g transform="scale(1,1) translate(-960,-540)"><g id="i15"><g transform="translate(1017.164,548.166)"><g transform="rotate(-11.8)"><animateTransform repeatCount="indefinite" type="rotate" attributeName="transform" dur="2.035s" begin="0s" calcMode="spline" values="-11.8; 15.3; -11.8; -11.8" keyTimes="0; 0.491803; 0.983607; 1" keySplines="0.45 0 0.55 1; 0.45 0 0.55 1; 0 0 1 1" fill="freeze" /><g transform="scale(1,1) translate(-1017.164,-548.166)"><g id="i16" transform="matrix(1,0,0,1,1067.015,326.095)"><path fill="#ee2761" d="M91.095,0C91.095,50.31,50.311,91.095,-0.001,91.095C-50.31,91.095,-91.095,50.31,-91.095,0C-91.095,-50.312,-50.31,-91.095,-0.001,-91.095C50.311,-91.095,91.095,-50.312,91.095,0Z" /></g><g id="i17" transform="matrix(1,0,0,1,970.298,326.095)"><path fill="#ee2761" d="M91.095,0C91.095,50.31,50.31,91.095,0,91.095C-50.311,91.095,-91.095,50.31,-91.095,0C-91.095,-50.312,-50.311,-91.095,0,-91.095C50.31,-91.095,91.095,-50.312,91.095,0Z" /></g><g id="i6" transform="matrix(1,0,0,1,970.297,326.095)"><path fill="#ffffff" d="M57.357,0C57.357,31.678,31.677,57.357,0.001,57.357C-31.677,57.357,-57.357,31.678,-57.357,0C-57.357,-31.678,-31.677,-57.357,0.001,-57.357C31.677,-57.357,57.357,-31.678,57.357,0Z" /></g><g id="i7" transform="matrix(1,0,0,1,970.297,326.095)"><path fill="#002539" d="M16.87,0C16.87,9.316,9.315,16.869,0,16.869C-9.318,16.869,-16.87,9.316,-16.87,0C-16.87,-9.318,-9.318,-16.869,0,-16.869C9.315,-16.869,16.87,-9.318,16.87,0Z" /></g><g id="i8" transform="matrix(1,0,0,1,970.297,466.674)"><path fill="#ee2761" d="M7.872,74.226C7.872,74.226,-7.872,74.226,-7.872,74.226C-7.872,74.226,-7.872,-74.226,-7.872,-74.226C-7.872,-74.226,7.872,-74.226,7.872,-74.226C7.872,-74.226,7.872,74.226,7.872,74.226Z" /></g><g id="i2" transform="matrix(1,0,0,1,1067.016,326.095)"><path fill="#ffffff" d="M57.356,0C57.356,31.678,31.676,57.357,-0.001,57.357C-31.676,57.357,-57.356,31.678,-57.356,0C-57.356,-31.678,-31.676,-57.357,-0.001,-57.357C31.676,-57.357,57.356,-31.678,57.356,0Z" /></g><g id="i3" transform="matrix(1,0,0,1,1067.016,326.095)"><path fill="#002539" d="M16.87,0C16.87,9.316,9.317,16.869,-0.001,16.869C-9.317,16.869,-16.87,9.316,-16.87,0C-16.87,-9.318,-9.317,-16.869,-0.001,-16.869C9.317,-16.869,16.87,-9.318,16.87,0Z" /></g><g id="i4" transform="matrix(1,0,0,1,1067.016,466.674)"><path fill="#ee2761" d="M7.872,74.226C7.872,74.226,-7.871,74.226,-7.871,74.226C-7.871,74.226,-7.871,-74.226,-7.871,-74.226C-7.871,-74.226,7.872,-74.226,7.872,-74.226C7.872,-74.226,7.872,74.226,7.872,74.226Z" /></g></g></g></g></g></g></g></g><g id="i0"><g transform="translate(705.535,556.333)"><animateTransform repeatCount="indefinite" type="translate" attributeName="transform" dur="2.035s" begin="0s" calcMode="spline" values="705.535 556.333; 1213.535 556.333; 705.535 556.333; 705.535 556.333" keyTimes="0; 0.491803; 0.983607; 1" keySplines="0.58 0 0.42 1; 0.58 0 0.42 1; 0 0 1 1" fill="freeze" /><g transform="scale(1,1) translate(-960,-540)"><g transform="matrix(1,0,0,1,0,0)" id="i18"><g id="i4" transform="matrix(1,0,0,1,1019.168,561.181)"><path fill="#ba1646" d="M-92.806,-6.268C-101.169,-14.628,-101.169,-28.184,-92.806,-36.544C-84.446,-44.907,-70.89,-44.907,-62.53,-36.544C-28.05,-2.067,28.049,-2.067,62.529,-36.544C70.89,-44.907,84.445,-44.907,92.805,-36.544C101.169,-28.184,101.169,-14.628,92.805,-6.268C41.632,44.907,-41.633,44.907,-92.806,-6.268Z" /></g></g></g></g></g></svg>